<?xml version="1.0" encoding="UTF-8"?>
<svg xmlns="http://www.w3.org/2000/svg" xmlns:xlink="http://www.w3.org/1999/xlink" width="100px" height="100px" viewBox="0 0 100 100" version="1.1">
<g id="surface1">
<path style=" stroke:none;fill-rule:nonzero;fill:rgb(0%,0%,0%);fill-opacity:1;" d="M 79.167969 25 L 59.671875 25 C 58.011719 23.816406 56.144531 22.953125 54.167969 22.449219 L 54.167969 20.832031 L 68.875 13.949219 C 70.101562 13.191406 70.847656 11.851562 70.847656 10.410156 C 70.847656 8.964844 70.101562 7.625 68.875 6.867188 L 55.542969 0.617188 C 53.425781 -0.371094 50.953125 -0.210938 48.984375 1.046875 C 47.015625 2.304688 45.828125 4.480469 45.832031 6.816406 L 45.832031 22.449219 C 43.859375 22.949219 41.992188 23.816406 40.332031 25 L 20.832031 25 C 9.332031 25.015625 0.015625 34.332031 0 45.832031 L 0 87.5 C 0 94.402344 5.597656 100 12.5 100 L 87.5 100 C 94.402344 100 100 94.402344 100 87.5 L 100 45.832031 C 99.984375 34.332031 90.667969 25.015625 79.167969 25 Z M 90.898438 41.667969 L 81.902344 41.667969 C 78.589844 41.660156 75.414062 40.34375 73.066406 38.003906 L 68.390625 33.332031 L 79.167969 33.332031 C 84.445312 33.355469 89.140625 36.691406 90.898438 41.667969 Z M 20.832031 33.332031 L 31.609375 33.332031 L 26.933594 38.003906 C 24.585938 40.34375 21.410156 41.660156 18.097656 41.667969 L 9.101562 41.667969 C 10.859375 36.691406 15.554688 33.355469 20.832031 33.332031 Z M 54.167969 91.667969 L 45.832031 91.667969 L 45.832031 79.167969 C 45.832031 76.867188 47.699219 75 50 75 C 52.300781 75 54.167969 76.867188 54.167969 79.167969 Z M 87.5 91.667969 L 62.5 91.667969 L 62.5 79.167969 C 62.5 72.261719 56.902344 66.667969 50 66.667969 C 43.097656 66.667969 37.5 72.261719 37.5 79.167969 L 37.5 91.667969 L 12.5 91.667969 C 10.199219 91.667969 8.332031 89.800781 8.332031 87.5 L 8.332031 50 L 18.097656 50 C 23.625 50.011719 28.925781 47.816406 32.824219 43.894531 L 44.109375 32.617188 C 47.363281 29.363281 52.636719 29.363281 55.890625 32.617188 L 67.175781 43.894531 C 71.074219 47.816406 76.375 50.011719 81.902344 50 L 91.667969 50 L 91.667969 87.5 C 91.667969 89.800781 89.800781 91.667969 87.5 91.667969 Z M 29.167969 62.5 C 29.167969 64.800781 27.300781 66.667969 25 66.667969 L 20.832031 66.667969 C 18.53125 66.667969 16.667969 64.800781 16.667969 62.5 C 16.667969 60.199219 18.53125 58.332031 20.832031 58.332031 L 25 58.332031 C 27.300781 58.332031 29.167969 60.199219 29.167969 62.5 Z M 29.167969 79.167969 C 29.167969 81.46875 27.300781 83.332031 25 83.332031 L 20.832031 83.332031 C 18.53125 83.332031 16.667969 81.46875 16.667969 79.167969 C 16.667969 76.867188 18.53125 75 20.832031 75 L 25 75 C 27.300781 75 29.167969 76.867188 29.167969 79.167969 Z M 83.332031 62.5 C 83.332031 64.800781 81.46875 66.667969 79.167969 66.667969 L 75 66.667969 C 72.699219 66.667969 70.832031 64.800781 70.832031 62.5 C 70.832031 60.199219 72.699219 58.332031 75 58.332031 L 79.167969 58.332031 C 81.46875 58.332031 83.332031 60.199219 83.332031 62.5 Z M 83.332031 79.167969 C 83.332031 81.46875 81.46875 83.332031 79.167969 83.332031 L 75 83.332031 C 72.699219 83.332031 70.832031 81.46875 70.832031 79.167969 C 70.832031 76.867188 72.699219 75 75 75 L 79.167969 75 C 81.46875 75 83.332031 76.867188 83.332031 79.167969 Z M 58.332031 50 C 58.332031 54.601562 54.601562 58.332031 50 58.332031 C 45.398438 58.332031 41.667969 54.601562 41.667969 50 C 41.667969 45.398438 45.398438 41.667969 50 41.667969 C 54.601562 41.667969 58.332031 45.398438 58.332031 50 Z M 58.332031 50 "/>
</g>
</svg>
